<?xml version="1.0" standalone="no"?>
<!DOCTYPE svg PUBLIC "-//W3C//DTD SVG 20010904//EN"
 "http://www.w3.org/TR/2001/REC-SVG-20010904/DTD/svg10.dtd">
<svg version="1.0" xmlns="http://www.w3.org/2000/svg"
 width="960.000000pt" height="622.000000pt" viewBox="0 0 960.000000 622.000000"
 preserveAspectRatio="xMidYMid meet">

<g transform="translate(0.000000,622.000000) scale(0.100000,-0.100000)"
fill="#000000" stroke="none">
<path d="M2991 6147 c-38 -98 -38 -326 -1 -455 24 -87 77 -196 125 -262 109
-148 327 -291 483 -316 l42 -7 20 45 c54 122 70 333 37 470 -69 283 -283 480
-577 534 -105 19 -119 18 -129 -9z"/>
<path d="M4405 5696 c-313 -72 -517 -306 -555 -634 -5 -48 -10 -254 -10 -459
l0 -371 -187 -109 c-104 -60 -394 -228 -646 -373 l-457 -263 2 -1289 3 -1290
375 -205 c1061 -580 1213 -663 1217 -663 1 0 4 905 5 2011 l3 2012 300 173
c165 96 306 174 313 174 19 0 1590 -901 1895 -1086 l47 -29 0 -907 0 -908
-1135 0 -1135 0 0 -155 0 -155 1285 0 1285 0 0 1159 0 1159 -52 29 c-43 24
-1439 829 -1883 1086 -66 38 -159 92 -207 119 l-86 49 -34 -17 c-32 -16 -499
-285 -565 -326 l-33 -20 0 265 0 265 47 7 c177 26 376 137 488 271 92 112 181
301 188 403 l2 35 -75 24 c-94 31 -299 40 -395 18z m-565 -3491 l0 -1656 -22
12 c-13 7 -176 96 -363 199 -187 103 -400 219 -472 259 l-133 72 0 1112 0
1112 488 272 c268 150 490 272 495 273 4 0 7 -745 7 -1655z"/>
<path d="M2770 5075 c-128 -26 -250 -83 -250 -116 0 -30 70 -176 120 -249 190
-280 542 -408 884 -320 104 26 105 28 94 93 -40 218 -202 434 -400 531 -146
73 -293 93 -448 61z"/>
</g>
</svg>
